<svg xmlns="http://www.w3.org/2000/svg" xmlns:xlink="http://www.w3.org/1999/xlink" viewBox="0 727 375 667">
  <defs>
    <style>
      .cls-1 {
        clip-path: url(#clip-Home);
      }

      .cls-2 {
        opacity: 0;
      }

      .cls-3, .cls-5 {
        fill: #f0f0f1;
      }

      .cls-3 {
        font-size: 11px;
        font-family: AcuminProSemiCond-Light, Acumin Pro SemiCondensed;
      }

      .cls-17, .cls-3 {
        font-weight: 300;
      }

      .cls-4 {
        fill: #fff400;
      }

      .cls-10, .cls-13, .cls-6, .cls-7, .cls-8, .cls-9 {
        fill: #fff;
      }

      .cls-10, .cls-6, .cls-9 {
        font-size: 12px;
        font-family: Helvetica;
      }

      .cls-13, .cls-14, .cls-15, .cls-16, .cls-8 {
        fill-rule: evenodd;
      }

      .cls-9 {
        letter-spacing: 0.017em;
      }

      .cls-10 {
        letter-spacing: 0.008em;
      }

      .cls-11 {
        fill: #f4f4f5;
      }

      .cls-12, .cls-19, .cls-21 {
        fill: none;
      }

      .cls-12 {
        stroke: #fff;
      }

      .cls-12, .cls-19 {
        stroke-width: 1px;
      }

      .cls-13 {
        opacity: 0.402;
      }

      .cls-14 {
        fill: #030203;
      }

      .cls-15 {
        fill: #fff100;
      }

      .cls-17 {
        font-size: 7px;
        font-family: HelveticaNeue-Light, Helvetica Neue;
      }

      .cls-18 {
        fill: #fefdff;
      }

      .cls-19 {
        stroke: #676767;
        opacity: 0.501;
      }

      .cls-20 {
        stroke: none;
      }
    </style>
    <clipPath id="clip-Home">
      <rect y="727" width="375" height="667"/>
    </clipPath>
  </defs>
	<g id="group-312" transform="translate(0 716)">
      <text id="Challenges" class="cls-3" transform="translate(93 476.95)"><tspan x="-18.392" y="0">Pyramid</tspan></text>
      <g id="group-33" transform="translate(-39.448 -40.96)">
        <path id="path-2" data-name="path" class="cls-5" d="M-343.063,575.921-373.8,524.288a1.993,1.993,0,0,0-1.631-1.138,1.994,1.994,0,0,0-1.631,1.138l-30.706,51.633c-.908,1.559-.3,2.759,1.347,2.759h62.008C-342.751,578.665-342.156,577.48-343.063,575.921Z" transform="translate(518.323 -78.1)"/>
        <path id="path-3" data-name="path" class="cls-4" d="M-396.431,529.73a1.821,1.821,0,0,0-1.638-1.115,1.821,1.821,0,0,0-1.638,1.115l-22.409,37.711c-.908,1.559-.3,2.759,1.347,2.759h16.154l16.14-27.126Z" transform="translate(512.32 -75.046)"/>
      </g>
    </g>
</svg>