<svg xmlns="http://www.w3.org/2000/svg" xmlns:xlink="http://www.w3.org/1999/xlink" viewBox="0 727 375 667">
  <defs>
    <style>
      .cls-1 {
        clip-path: url(#clip-Home);
      }

      .cls-2 {
        opacity: 0;
      }

      .cls-3, .cls-5 {
        fill: #f0f0f1;
      }

      .cls-3 {
        font-size: 11px;
        font-family: AcuminProSemiCond-Light, Acumin Pro SemiCondensed;
      }

      .cls-17, .cls-3 {
        font-weight: 300;
      }

      .cls-4 {
        fill: #fff400;
      }

      .cls-10, .cls-13, .cls-6, .cls-7, .cls-8, .cls-9 {
        fill: #fff;
      }

      .cls-10, .cls-6, .cls-9 {
        font-size: 12px;
        font-family: Helvetica;
      }

      .cls-13, .cls-14, .cls-15, .cls-16, .cls-8 {
        fill-rule: evenodd;
      }

      .cls-9 {
        letter-spacing: 0.017em;
      }

      .cls-10 {
        letter-spacing: 0.008em;
      }

      .cls-11 {
        fill: #f4f4f5;
      }

      .cls-12, .cls-19, .cls-21 {
        fill: none;
      }

      .cls-12 {
        stroke: #fff;
      }

      .cls-12, .cls-19 {
        stroke-width: 1px;
      }

      .cls-13 {
        opacity: 0.402;
      }

      .cls-14 {
        fill: #030203;
      }

      .cls-15 {
        fill: #fff100;
      }

      .cls-17 {
        font-size: 7px;
        font-family: HelveticaNeue-Light, Helvetica Neue;
      }

      .cls-18 {
        fill: #fefdff;
      }

      .cls-19 {
        stroke: #676767;
        opacity: 0.501;
      }

      .cls-20 {
        stroke: none;
      }
    </style>
    <clipPath id="clip-Home">
      <rect y="80" width="80" height="80"/>
    </clipPath>
  </defs>
    <g id="group-215" transform="translate(16.068 709)">
      <path id="path-24" data-name="path" class="cls-13" d="M60.075,120a7.188,7.188,0,0,1-5.132-2.113L2.113,65.057A6.6,6.6,0,0,1,0,60.075a7.188,7.188,0,0,1,2.113-5.132l52.83-52.83a7.288,7.288,0,0,1,10.264,0l52.83,52.83a7.2,7.2,0,0,1,0,10.264l-52.83,52.83A7.739,7.739,0,0,1,60.075,120Z" transform="translate(110.932 105)"/>
      <path id="path-25" data-name="path" class="cls-14" d="M63.654,2.673l52.83,52.83a5.74,5.74,0,0,1,0,8.151l-52.83,52.83a5.74,5.74,0,0,1-8.151,0L2.673,63.654a5.74,5.74,0,0,1,0-8.151L55.5,2.673a5.74,5.74,0,0,1,8.151,0" transform="translate(111.429 105.497)"/>
      <path id="path-26" data-name="path" class="cls-15" d="M59.571,4.929l51.17,51.17a2.558,2.558,0,0,1,0,3.472l-51.17,51.17a2.558,2.558,0,0,1-3.472,0L4.929,59.571a2.558,2.558,0,0,1,0-3.472L56.1,4.929a2.558,2.558,0,0,1,3.472,0" transform="translate(113.097 107.165)"/>
      <path id="path-27" data-name="path" class="cls-16" d="M78.507,32.189a4.152,4.152,0,1,1-4.226,4.075,4.189,4.189,0,0,1,4.226-4.075M74.13,38.679,76.847,41.7,73.224,54.679l3.472-.151.3,6.34-1.509.453L72.62,60.113l-.151-1.962L69.149,68.868l-1.208,5.283L71.262,85.17c-1.811,1.057-3.623,1.811-5.585,2.717L61.752,72.642l1.811-12.377L57.375,57.7l-1.66,9.66-5.132-.3,1.509-17.208,1.358-.6L65.526,53.17l1.057-2.264.755-2.415-.906-.151-8.906-4.528,1.358-3.472L67.639,42.6l1.509-.6L65.224,26.151,69,25.094ZM52.545,100.717c.151.151.3.151.3.3a18.11,18.11,0,0,0,3.019-.453c1.66.151,3.925-2.717,4.226-4.075.755-2.113-.755-3.925-1.358-5.887-1.811-3.019-6.189-8.906-8.151-11.472-1.057-2.415-.906-5.434-1.509-8,0-1.208-1.057-1.962-1.208-3.17C45,64.943,44.847,61.019,43.639,57.7a4.926,4.926,0,0,1,.453-4.377c.151-1.66.755-3.321,1.057-4.981.6-.906.755-2.113,1.811-2.868.755-1.509,1.811-2.868,1.962-4.679l.151-.3a29.4,29.4,0,0,1,.3-3.774c-.3-2.566,1.962-4.075,2.868-6.038a43.323,43.323,0,0,0,6.491-9.358c1.057-2.264,1.358-5.434-.453-7.547C57.073,12.868,53.6,11.057,51.639,10L10.733,51.057,7.715,54.075a1.583,1.583,0,0,0,0,1.962Z" transform="translate(114.689 110.094)"/>
    </g>
</svg>